<svg xmlns="http://www.w3.org/2000/svg" width="22" height="21" viewBox="0 0 22 21">
<path fill="#637188" fill-rule="evenodd" d="M1490.11,4647.08l0.29-1.58a1.469,1.469,0,0,1,.43-2.33l0.37-1.96a1.459,1.459,0,0,1-.2-0.71,1.48,1.48,0,0,1,.54-1.13l0.26-1.37a1.943,1.943,0,0,1,1.87-2h11.46a1.721,1.721,0,0,1,.9.26,2.008,2.008,0,0,1,.97-0.26h2a2.006,2.006,0,0,1,2,2v10a2.006,2.006,0,0,1-2,2h-2a2.008,2.008,0,0,1-.97-0.26,1.721,1.721,0,0,1-.9.26H1504s-2,2.55-2,4c0,1.66-.92,3-2.37,3s-2.63-.84-2.63-3v-4h-6.5a1.5,1.5,0,0,1-1.5-1.5A1.477,1.477,0,0,1,1490.11,4647.08ZM1507,4647a1,1,0,0,0,2,0v-8a1,1,0,0,0-2,0v8Zm-14.11,1h4.78l1.33,2h-0.01v4c-0.01,1.28.34,1,.76,1s0.25-.26.25-1c0-1.42,2.01-4,2.01-4H1502l2-2h0.11a0.948,0.948,0,0,0,.89-0.96v-8.08a0.948,0.948,0,0,0-.89-0.96h-9.42a0.96,0.96,0,0,0-.9,1l-1.8,8A0.953,0.953,0,0,0,1492.89,4648Z" transform="translate(-1489 -4636)"/>
</svg>
