<svg xmlns="http://www.w3.org/2000/svg" width="15" height="13.969" viewBox="0 0 15 13.969" class="in-size">
  <path fill-rule="evenodd"  fill="#3c4759" class="in-color" d="M1001.02,558.984h2.99V549h-2.99v9.987Zm11.67-10.331a4.486,4.486,0,0,0-3.68,1.7v-1.389H1006v10.018h3.01v-5.418a2.378,2.378,0,0,1,2.36-2.261c1.32,0,1.64,1.117,1.64,2.234v5.445h3v-5.669C1016.01,549.378,1014.14,548.653,1012.69,548.653Zm-10.19-3.663a1.507,1.507,0,1,0,1.49,1.507A1.494,1.494,0,0,0,1002.5,544.99Z" transform="translate(-1001 -545)"/>
</svg>
