<svg xmlns="http://www.w3.org/2000/svg" width="15.06" height="15" viewBox="0 0 15.06 15" class="rss-size">
  <path fill-rule="evenodd"  fill="#3c4759" class="rss-color" d="M1038.99,554.969a2.016,2.016,0,1,0,2.02,2.016A2.016,2.016,0,0,0,1038.99,554.969Zm-1.85-5.914c-0.03,0-.07.007-0.11,0.008v2.792c0.04,0,.08-0.006.11-0.006a7,7,0,0,1,7.01,6.979c0,0.059-.01.116-0.01,0.175h2.8c0-.059.01-0.116,0.01-0.175A9.8,9.8,0,0,0,1037.14,549.055Zm0-5.058c-0.03,0-.07,0-0.11,0v2.792c0.04,0,.08,0,0.11,0a12.076,12.076,0,0,1,12.09,12.04c0,0.059-.01.116-0.01,0.175h2.8c0-.059.01-0.116,0.01-0.175A14.878,14.878,0,0,0,1037.14,544Z" transform="translate(-1036.97 -544)"/>
</svg>
