<svg xmlns="http://www.w3.org/2000/svg" width="16" height="13" viewBox="0 0 16 13" class="twitter-size">
  <path fill-rule="evenodd"  fill="#3c4759" class="twitter-color" d="M980.563,546.562a5.784,5.784,0,0,1-1.833.52,3.5,3.5,0,0,0,1.376-1.793,5.339,5.339,0,0,1-2.059.729s0,0,0,0a3.3,3.3,0,0,0-5.6,3.016h0a9.519,9.519,0,0,1-6.992-3.424,3.3,3.3,0,0,0,1,4.361,2.121,2.121,0,0,1-1.441-.372,3.177,3.177,0,0,0,2.546,3.224,2.585,2.585,0,0,1-1.374.1,3.121,3.121,0,0,0,2.95,2.242,5.414,5.414,0,0,1-4.571,1.369,9.906,9.906,0,0,0,5.163,1.46,9.17,9.17,0,0,0,9.238-9.64c0-.006,0-0.013,0-0.017s0-.03,0-0.042,0-.032,0-0.05A5.685,5.685,0,0,0,980.563,546.562Z" transform="translate(-964.562 -545)"/>
</svg>
