<svg xmlns="http://www.w3.org/2000/svg" xmlns:xlink="http://www.w3.org/1999/xlink" width="22" height="22" viewBox="0 0 22 22">
  <path fill="#3c4759" fill-rule="evenodd" d="M21.707,20.293 L16.032,14.618 C17.264,13.078 18.000,11.125 18.000,9.000 C18.000,4.030 13.971,-0.000 9.000,-0.000 C4.029,-0.000 -0.000,4.030 -0.000,9.000 C-0.000,13.970 4.029,18.000 9.000,18.000 C11.125,18.000 13.078,17.264 14.618,16.032 L20.293,21.707 C20.488,21.902 20.744,22.000 21.000,22.000 C21.256,22.000 21.512,21.902 21.707,21.707 C22.098,21.317 22.098,20.683 21.707,20.293 ZM9.000,16.000 C5.134,16.000 2.000,12.866 2.000,9.000 C2.000,5.134 5.134,2.000 9.000,2.000 C12.866,2.000 16.000,5.134 16.000,9.000 C16.000,12.866 12.866,16.000 9.000,16.000 Z"/>
</svg>
